<?xml version="1.0" encoding="UTF-8" standalone="no"?>
<!-- Created with Inkscape (http://www.inkscape.org/) -->

<svg
   width="512.0px"
   height="512.0px"
   viewBox="0 0 512.0 512.0"
   version="1.1"
   id="SVGRoot"
   sodipodi:docname="logo.svg"
   inkscape:version="1.1 (c68e22c387, 2021-05-23)"
   xmlns:inkscape="http://www.inkscape.org/namespaces/inkscape"
   xmlns:sodipodi="http://sodipodi.sourceforge.net/DTD/sodipodi-0.dtd"
   xmlns="http://www.w3.org/2000/svg"
   xmlns:svg="http://www.w3.org/2000/svg">
  <sodipodi:namedview
     id="namedview14"
     pagecolor="#505050"
     bordercolor="#eeeeee"
     borderopacity="1"
     inkscape:pageshadow="0"
     inkscape:pageopacity="0"
     inkscape:pagecheckerboard="0"
     inkscape:document-units="px"
     showgrid="true"
     inkscape:zoom="0.74208053"
     inkscape:cx="655.58923"
     inkscape:cy="433.91517"
     inkscape:window-width="1920"
     inkscape:window-height="1011"
     inkscape:window-x="0"
     inkscape:window-y="32"
     inkscape:window-maximized="1"
     inkscape:current-layer="layer1">
    <inkscape:grid
       type="xygrid"
       id="grid20" />
  </sodipodi:namedview>
  <defs
     id="defs9" />
  <g
     inkscape:label="Layer 1"
     inkscape:groupmode="layer"
     id="layer1">
    <g
       id="g186"
       transform="matrix(0.60468703,0,0,0.60468703,-19.510589,0.634591)">
      <path
         style="fill:#95e7ee"
         d="M 366.39,125.45 86.5,126 v 336 c 0,22.09 17.91,40 40,40 h 200 c 22.09,0 40,-17.91 40,-40 V 125.65 Z"
         id="path112" />
      <polygon
         style="fill:#fec652"
         points="366.39,125.45 86.5,126 86.5,462 366.5,462 366.5,125.65 "
         id="polygon114" />
      <path
         style="fill:#95e7ee"
         d="m 466.5,211 v 171 c 0,22.09 -17.91,40 -40,40 h -60 v -40 h 60 V 211 h -60 v -40 h 60 c 22.09,0 40,17.91 40,40 z"
         id="path116" />
      <path
         style="fill:#ffe5cb"
         d="m 385.45,81.71 c 7.61,33.773 -27.227,60.794 -59.95,44.15 v 84.43 c 0,11.04 -8.95,20 -20,20 -11.05,0 -20,-8.96 -20,-20 v -40 c 0,-13.81 0.5,-39.29 -44,-39.29 -3.61,0 -7.06,1.46 -9.56,4.05 -9.09,9.4 -21.83,15.24 -35.94,15.24 -13.65,0 -26.02,-5.47 -35.04,-14.34 -3.23,-3.17 -7.58,-4.95 -12.32,-4.95 -3.81,0 -7.29,2.17 -8.96,5.59 -9.66,19.78 -29.73,33.5 -53.18,33.7 v 79.78 c -0.5,11.26 -9.45,20.22 -20.5,20.22 -11.05,0 -20.5,-8.96 -20.5,-20 0,-13.087 0,-106.121 0,-120 C 45.5,82.72 87.51,44.85 136.26,51.1 149.91,26.77 176.03,10 206,10 c 23.7,0 44.99,10.59 59.64,26.97 6.04,-3.82 13.2,-5.97 20.86,-5.97 17.45,0 32.29,11.17 37.75,26.75 8.59,-5.76 19.54,-8.28 31.09,-5.8 14.68,3.14 26.82,15.12 30.11,29.76 z"
         id="path118" />
      <path
         d="m 286,451.29 c -5.52,0 -10,4.48 -10,10 0,5.52 4.48,10 10,10 5.52,0 10,-4.48 10,-10 0,-5.52 -4.48,-10 -10,-10 z"
         id="path120" />
      <path
         d="m 145.5,200.29 c -5.523,0 -10,4.477 -10,10 v 191 c 0,5.523 4.477,10 10,10 5.523,0 10,-4.477 10,-10 v -191 c 0,-5.523 -4.477,-10 -10,-10 z"
         id="path122" />
      <path
         d="m 225.5,200.29 c -5.523,0 -10,4.477 -10,10 v 191 c 0,5.523 4.477,10 10,10 5.523,0 10,-4.477 10,-10 v -191 c 0,-5.523 -4.477,-10 -10,-10 z"
         id="path124" />
      <path
         d="m 126.5,512 h 200 c 27.57,0 50,-22.43 50,-50 v -30 h 50 c 27.57,0 50,-22.43 50,-50 V 211 c 0,-27.57 -22.43,-50 -50,-50 h -50 V 130.741 C 392.175,118.99 399.625,99.128 395.207,79.517 391.074,61.127 375.894,46.119 357.439,42.172 347.628,40.067 337.747,40.812 328.744,44.235 319.716,30.002 303.862,21 286.5,21 279.956,21 273.561,22.269 267.648,24.711 250.91,8.922 228.843,0 206,0 175.784,0 147.604,15.393 130.97,40.579 78.7,37.687 35.5,79.156 35.5,130.29 v 120 c 0,16.542 13.682,30 30.5,30 3.689,0 7.224,-0.671 10.5,-1.893 V 462 c 0,27.57 22.43,50 50,50 z m 200,-20 h -200 c -13.036,0 -24.152,-8.361 -28.28,-20 h 147.79 c 5.523,0 10,-4.477 10,-10 0,-5.523 -4.477,-10 -10,-10 H 96.5 V 250.07 179.506 c 22.463,-3.391 41.914,-17.538 52.14,-38.505 2.086,0 3.924,0.722 5.309,2.081 11.286,11.098 26.22,17.209 42.051,17.209 16.408,0 31.725,-6.495 43.135,-18.295 0.61,-0.632 1.473,-0.995 2.365,-0.995 15.567,0 25.753,3.325 30.277,9.881 3.729,5.405 3.726,12.915 3.723,18.95 v 40.459 c 0,13.036 8.361,24.152 20,28.28 v 162.72 c 0,5.523 4.477,10 10,10 5.523,0 10,-4.477 10,-10 V 238.57 c 11.639,-4.128 20,-15.243 20,-28.28 v -70.464 c 7.005,1.398 14.154,1.407 21,0.007 V 452 h -30.51 c -5.523,0 -10,4.477 -10,10 0,5.523 4.477,9.9 10,9.9 h 28.79 C 350.652,483.539 339.536,492 326.5,492 Z m 50,-271 h 40 v 151 h -40 z m 50,-40 c 16.542,0 30,13.458 30,30 v 171 c 0,16.542 -13.458,30 -30,30 h -50 v -20 h 50 c 5.523,0 10,-4.477 10,-10 V 211 c 0,-5.523 -4.477,-10 -10,-10 h -50 V 181 Z M 66,260.29 c -5.691,0 -10.5,-4.58 -10.5,-10 v -120 c 0,-38.596 31.582,-69.852 70.407,-69.852 3.017,0 6.05,0.192 9.081,0.581 4.045,0.519 7.998,-1.471 9.993,-5.026 C 157.437,33.792 180.818,20 206,20 c 19.73,0 38.752,8.615 52.187,23.637 3.256,3.642 8.668,4.398 12.799,1.785 C 275.559,42.529 280.924,41 286.5,41 c 12.73,0 24.108,8.061 28.313,20.057 1.023,2.92 3.341,5.203 6.277,6.181 2.935,0.978 6.159,0.542 8.729,-1.182 6.816,-4.57 15.134,-6.107 23.429,-4.327 10.8,2.31 20.03,11.428 22.446,22.179 5.692,25.264 -20.205,45.988 -45.661,33.039 -3.1,-1.577 -6.796,-1.43 -9.762,0.389 -2.965,1.818 -4.772,5.046 -4.772,8.524 v 84.43 c 0,5.514 -4.486,10 -10,10 -5.514,0 -10,-4.486 -10,-10 v -40.452 c 0.003,-7.876 0.008,-19.779 -7.261,-30.315 C 279.759,127.232 264.034,121 241.5,121 c -6.29,0 -12.396,2.589 -16.749,7.099 -7.602,7.862 -17.813,12.191 -28.751,12.191 -10.553,0 -20.507,-4.073 -28.035,-11.477 C 162.832,123.774 155.969,121 148.64,121 c -7.579,0 -14.623,4.397 -17.946,11.202 -8.382,17.164 -25.35,27.927 -44.28,28.089 -5.489,0.047 -9.915,4.51 -9.915,10 v 79.525 C 76.147,255.705 71.568,260.29 66,260.29 Z"
         id="path126" />
      <g
         id="g128">
</g>
      <g
         id="g130">
</g>
      <g
         id="g132">
</g>
      <g
         id="g134">
</g>
      <g
         id="g136">
</g>
      <g
         id="g138">
</g>
      <g
         id="g140">
</g>
      <g
         id="g142">
</g>
      <g
         id="g144">
</g>
      <g
         id="g146">
</g>
      <g
         id="g148">
</g>
      <g
         id="g150">
</g>
      <g
         id="g152">
</g>
      <g
         id="g154">
</g>
      <g
         id="g156">
</g>
    </g>
    <g
       id="g318"
       transform="matrix(0.63063956,0,0,0.63063956,236.61552,191.69879)">
      <g
         id="g310">
        <path
           d="M 392.934,52.377 H 113.819 l 3.767,-28.56 C 118.812,14.476 126.763,7.5 136.18,7.5 h 234.391 c 9.418,0 17.368,6.976 18.605,16.317 z"
           fill="#465a61"
           id="path290" />
        <path
           d="M 356.292,52.377 H 113.819 l 3.767,-28.56 C 118.812,14.476 126.763,7.5 136.18,7.5 h 197.74 c 9.418,0 17.368,6.976 18.605,16.317 z"
           fill="#596c76"
           id="path292" />
        <path
           d="M 425.359,134.618 H 81.394 l 6.034,-68.005 c 0.712,-8.06 7.458,-14.236 15.55,-14.236 h 300.808 c 8.082,0 14.827,6.176 15.539,14.236 z"
           fill="#465a61"
           id="path294" />
        <path
           d="M 388.707,134.618 H 81.394 l 6.034,-68.005 c 0.712,-8.06 7.458,-14.236 15.55,-14.236 h 264.156 c 8.082,0 14.827,6.176 15.55,14.236 z"
           fill="#596c76"
           id="path296" />
        <path
           d="m 408.886,134.613 -37.92,347.63 c -0.95,8.68 -8.28,15.26 -17.01,15.26 h -201.15 c -8.74,0 -16.07,-6.58 -17.02,-15.26 l -37.92,-347.63 z"
           fill="#fedba6"
           id="path298" />
        <path
           d="m 372.866,134.613 -37.92,347.63 c -0.94,8.68 -8.28,15.26 -17.01,15.26 h -165.13 c -8.74,0 -16.07,-6.58 -17.02,-15.26 l -37.92,-347.63 z"
           fill="#ffefd2"
           id="path300" />
        <path
           d="m 401.618,201.341 -20.369,186.558 -3.176,29.151 H 128.679 l -3.176,-29.151 -20.368,-186.558 z"
           fill="#008b81"
           id="path302" />
        <path
           d="m 365.589,201.341 -20.357,186.558 -3.176,29.151 H 128.679 l -3.176,-29.151 -20.368,-186.558 z"
           fill="#01998d"
           id="path304" />
        <path
           d="M 299.501,330.232 277.654,353.7 c -9.472,10.184 -22.329,15.331 -35.207,15.331 -5.727,0 -11.466,-1.019 -16.908,-3.066 -5.716,-2.135 -11.115,-5.421 -15.857,-9.834 -19.449,-18.091 -20.533,-48.534 -2.431,-67.972 l 21.847,-23.468 c 5.245,-5.64 11.542,-9.735 18.299,-12.254 16.536,-6.198 35.875,-3.022 49.673,9.823 19.449,18.102 20.533,48.534 2.431,67.972 z"
           fill="#883f2e"
           id="path306" />
        <path
           d="M 265.663,330.232 243.816,353.7 c -5.245,5.64 -11.531,9.735 -18.277,12.265 -5.716,-2.135 -11.115,-5.421 -15.857,-9.834 -19.449,-18.091 -20.533,-48.534 -2.431,-67.972 l 21.847,-23.468 c 5.245,-5.64 11.542,-9.735 18.299,-12.254 5.705,2.136 11.093,5.41 15.835,9.823 19.449,18.102 20.533,48.534 2.431,67.972 z"
           fill="#a44f3e"
           id="path308" />
      </g>
      <g
         id="g316">
        <path
           d="M 431.955,133.954 425.921,65.953 C 424.86,53.937 414.968,44.877 402.911,44.877 h -4.274 L 395.738,22.833 C 394.013,9.815 382.818,0 369.697,0 H 135.305 c -13.13,0 -24.32,9.819 -26.03,22.837 l -2.907,22.04 h -4.266 c -12.063,0 -21.96,9.061 -23.021,21.073 l -6.034,68.004 c -0.868,9.787 11.124,8.163 17.218,8.163 l 37.19,340.941 c 1.369,12.511 11.891,21.944 24.476,21.944 h 120.753 c 4.142,0 7.5,-3.357 7.5,-7.5 0,-4.143 -3.358,-7.5 -7.5,-7.5 H 151.931 c -4.918,0 -9.03,-3.687 -9.564,-8.573 l -6.205,-56.881 H 368.84 l -6.204,56.879 c -0.535,4.889 -4.642,8.575 -9.554,8.575 h -41.558 c -4.142,0 -7.5,3.357 -7.5,7.5 0,4.143 3.358,7.5 7.5,7.5 h 41.558 c 12.579,0 23.097,-9.434 24.465,-21.946 l 37.191,-340.939 c 6.093,0 18.085,1.624 17.217,-8.163 z m -61.48,275.595 H 134.53 L 112.634,208.846 H 392.37 Z M 394.006,193.846 H 110.997 l -5.643,-51.729 H 399.648 Z M 88.714,127.117 94.024,67.273 c 0.373,-4.217 3.846,-7.396 8.08,-7.396 h 58.178 c 4.142,0 7.5,-3.357 7.5,-7.5 0,-4.143 -3.358,-7.5 -7.5,-7.5 h -38.783 l 2.649,-20.083 C 124.881,19.21 129.678,15 135.306,15 h 234.392 c 5.628,0 10.43,4.214 11.169,9.795 l 2.641,20.082 H 200.33 c -4.142,0 -7.5,3.357 -7.5,7.5 0,4.143 3.358,7.5 7.5,7.5 h 202.581 c 4.227,0 7.696,3.18 8.068,7.399 l 5.31,59.841 z"
           id="path312" />
        <path
           d="m 301.308,256.771 c -10.87,-10.119 -25.027,-15.411 -39.869,-14.868 -14.84,0.53 -28.586,6.809 -38.705,17.678 l -21.848,23.469 c -10.119,10.869 -15.399,25.028 -14.869,39.869 0.531,14.836 6.806,28.577 17.669,38.695 0.003,0.003 0.006,0.006 0.009,0.009 0.003,0.003 0.007,0.006 0.01,0.009 10.691,9.949 24.287,14.87 37.854,14.87 14.906,0 29.776,-5.943 40.71,-17.688 l 21.848,-23.469 c 20.889,-22.437 19.629,-57.686 -2.809,-78.574 z m -8.169,68.354 -21.848,23.469 c -13.507,14.507 -35.229,16.879 -51.404,6.644 l 33.44,-35.919 c 2.823,-3.031 2.653,-7.777 -0.379,-10.6 -3.031,-2.822 -7.777,-2.652 -10.6,0.379 l -33.447,35.927 c -4.834,-6.528 -7.597,-14.348 -7.893,-22.642 -0.387,-10.837 3.468,-21.176 10.857,-29.112 l 21.848,-23.469 c 7.389,-7.937 17.426,-12.521 28.262,-12.908 0.498,-0.018 0.992,-0.026 1.487,-0.026 7.761,0 15.219,2.182 21.666,6.278 l -18.6,19.979 c -2.823,3.031 -2.653,7.777 0.379,10.6 1.445,1.346 3.279,2.011 5.109,2.011 2.009,0 4.014,-0.803 5.491,-2.39 l 18.589,-19.968 c 11.364,15.402 10.55,37.239 -2.957,51.747 z"
           id="path314" />
      </g>
    </g>
  </g>
</svg>
